<?xml version="1.0" encoding="UTF-8"?>
<!DOCTYPE svg PUBLIC "-//W3C//DTD SVG 1.1//EN" "http://www.w3.org/Graphics/SVG/1.1/DTD/svg11.dtd">
<!-- Creator: CorelDRAW 2019 -->
<svg xmlns="http://www.w3.org/2000/svg" xml:space="preserve" width="308.592mm" height="20.597mm" version="1.1" style="shape-rendering:geometricPrecision; text-rendering:geometricPrecision; image-rendering:optimizeQuality; fill-rule:evenodd; clip-rule:evenodd" viewBox="0 0 25179.3 1680.59" xmlns:xlink="http://www.w3.org/1999/xlink" xmlns:xodm="http://www.corel.com/coreldraw/odm/2003">
 <defs>
  <style type="text/css">
   <![CDATA[
    .fil1 {fill:#0066CC}
    .fil2 {fill:black;fill-rule:nonzero}
    .fil0 {fill:#0066CC;fill-rule:nonzero}
   ]]>
  </style>
 </defs>
 <g id="Layer_x0020_1">
  <metadata id="CorelCorpID_0Corel-Layer"/>
  <g id="_591830384">
   <g>
    <path class="fil0" d="M208.15 1111.18c11.61,11.72 20.32,24.82 26.14,39.27 5.86,14.49 8.66,29.83 8.43,46.07 -0.38,16.24 -3.77,31.77 -10.11,46.7 -6.37,14.89 -15.31,28.03 -26.75,39.38 -11.65,11.54 -24.94,20.43 -39.85,26.62 -14.94,6.17 -30.36,9.27 -46.37,9.27 -16.39,0.22 -31.82,-2.68 -46.41,-8.67 -14.51,-5.99 -27.5,-14.78 -38.96,-26.34 -11.54,-11.65 -20.19,-24.71 -26.06,-39.28 -5.79,-14.56 -8.54,-30.02 -8.17,-46.41 0.15,-16.01 3.39,-31.4 9.69,-46.29 6.33,-14.85 15.34,-28.05 26.99,-39.6 11.53,-11.42 24.82,-20.32 39.8,-26.59 15.02,-6.23 30.52,-9.41 46.61,-9.49 16.08,-0.07 31.36,2.9 45.95,8.89 14.52,6 27.54,14.82 39.08,26.47zm-39.58 133.94c12.29,-12.17 17.98,-26.76 17.08,-43.76 -0.94,-17.04 -8.23,-32.43 -21.88,-46.21 -13.5,-13.62 -28.83,-20.98 -46.04,-22.04 -17.18,-1.02 -31.81,4.46 -43.87,16.42 -12.3,12.17 -17.95,26.8 -17,43.84 0.94,17.03 8.23,32.43 21.8,46.13 13.79,13.92 29.09,21.47 45.89,22.56 16.83,1.13 31.51,-4.54 44.03,-16.94zm154.68 -87.41l-161.25 -162.73 43.93 -43.52 73.26 73.93 -21.82 -124.9 51.66 -51.19 18.55 138.89 147.94 18.65 -55.35 54.84 -125.34 -20.52 72.35 73.03 -43.92 43.52zm150.94 -269.99l44.12 -43.71 -69.8 -37.29c-2.11,-1.14 -5.42,-3.05 -9.9,-5.83 -4.52,-2.74 -10.28,-6.27 -17.32,-10.57 2.99,4.92 5.84,9.69 8.5,14.27 2.66,4.5 5.17,8.94 7.53,13.21l36.87 69.92zm-1.96 122.37l-105.07 -218.39 55.57 -55.06 217.46 107.03 -44.11 43.71 -37.1 -20.98 -63.01 62.44 20.41 37.51 -44.15 43.75zm377.14 -373.7l-41.46 41.08 -79.24 -60.93c-5.61,-4.3 -11.66,-9.2 -18.29,-14.74 -6.54,-5.55 -13.65,-11.66 -21.17,-18.42 5.78,7.96 12.26,18.52 19.45,31.85 1.43,2.81 2.51,4.89 3.26,6.25l53.48 98.12 -29.59 29.32 -97.62 -54.37c-1.35,-0.77 -3.39,-1.91 -6.1,-3.43 -13.33,-7.24 -23.8,-13.78 -31.55,-19.63 5.67,6.56 11.19,13.19 16.56,19.83 5.41,6.59 10.66,13.34 15.8,20.12l60.16 79.83 -41.23 40.86 -136.13 -187.62 43.89 -43.48 107.68 59.59c0.75,0.46 2,1.1 3.8,2.02 9.69,5.22 17.47,10.2 23.38,14.95 -2.59,-3.22 -5.21,-6.94 -7.87,-11.29 -2.7,-4.32 -5.77,-9.69 -9.29,-16.05l-58.15 -108.22 44 -43.6 186.24 137.96zm117.67 -277.17c11.61,11.72 20.32,24.82 26.14,39.27 5.87,14.49 8.66,29.83 8.44,46.07 -0.38,16.24 -3.77,31.78 -10.11,46.7 -6.37,14.89 -15.31,28.03 -26.76,39.38 -11.64,11.54 -24.94,20.43 -39.85,26.62 -14.94,6.17 -30.36,9.27 -46.37,9.27 -16.39,0.23 -31.82,-2.68 -46.4,-8.67 -14.52,-6 -27.5,-14.78 -38.96,-26.35 -11.55,-11.65 -20.2,-24.71 -26.06,-39.28 -5.79,-14.56 -8.55,-30.02 -8.18,-46.41 0.15,-16.01 3.39,-31.4 9.69,-46.29 6.33,-14.85 15.34,-28.05 26.99,-39.6 11.53,-11.42 24.82,-20.32 39.8,-26.59 15.02,-6.23 30.52,-9.41 46.61,-9.49 16.09,-0.07 31.36,2.9 45.95,8.89 14.51,6 27.53,14.82 39.07,26.47zm-39.58 133.94c12.29,-12.17 17.98,-26.76 17.08,-43.76 -0.94,-17.04 -8.23,-32.43 -21.88,-46.21 -13.49,-13.62 -28.83,-20.98 -46.04,-22.04 -17.18,-1.02 -31.82,4.46 -43.88,16.42 -12.29,12.18 -17.94,26.8 -17,43.84 0.94,17.03 8.23,32.43 21.8,46.13 13.79,13.92 29.09,21.47 45.89,22.56 16.83,1.13 31.51,-4.54 44.03,-16.94zm174.13 -106.68l-123.13 -124.27 -36.42 36.08 -38.11 -38.46 117.21 -116.14 38.11 38.46 -36.42 36.08 123.13 124.27 -44.38 43.98zm192.28 -351.1c11.62,11.72 20.32,24.82 26.14,39.27 5.87,14.49 8.66,29.83 8.44,46.07 -0.38,16.24 -3.77,31.78 -10.11,46.7 -6.37,14.88 -15.31,28.02 -26.76,39.37 -11.64,11.54 -24.94,20.43 -39.85,26.62 -14.94,6.17 -30.36,9.27 -46.37,9.27 -16.38,0.23 -31.82,-2.68 -46.4,-8.67 -14.52,-6 -27.5,-14.78 -38.96,-26.35 -11.55,-11.65 -20.2,-24.71 -26.06,-39.28 -5.79,-14.56 -8.55,-30.02 -8.17,-46.41 0.15,-16.01 3.39,-31.4 9.69,-46.29 6.34,-14.85 15.35,-28.05 26.99,-39.6 11.53,-11.42 24.83,-20.32 39.81,-26.59 15.02,-6.23 30.51,-9.41 46.6,-9.49 16.09,-0.07 31.36,2.9 45.95,8.89 14.51,6 27.53,14.82 39.07,26.47zm-39.57 133.94c12.29,-12.17 17.98,-26.76 17.07,-43.76 -0.94,-17.04 -8.23,-32.43 -21.88,-46.21 -13.49,-13.62 -28.83,-20.98 -46.04,-22.04 -17.18,-1.02 -31.82,4.46 -43.88,16.42 -12.29,12.18 -17.94,26.8 -17,43.84 0.94,17.03 8.23,32.43 21.8,46.13 13.8,13.92 29.09,21.47 45.89,22.56 16.83,1.13 31.51,-4.54 44.04,-16.94z"/>
    <polygon class="fil1" points="197.76,1370.39 1379.87,1370.39 1379.87,199.07 "/>
   </g>
   <g>
    <path class="fil2" d="M1770.45 1369.19l0 -1061.78 343.8 0c130.25,0 215.02,5.19 254.57,15.82 60.8,16.07 111.71,50.66 152.74,104.05 41.03,53.39 61.54,122.34 61.54,206.87 0,65.25 -11.86,119.87 -35.34,164.36 -23.73,44.49 -53.63,79.33 -89.97,104.79 -36.33,25.21 -73.41,42.02 -110.98,50.17 -51.16,10.13 -125.06,15.32 -221.94,15.32l-139.4 0 0 400.4 -215.02 0zm215.02 -882.35l0 302.52 116.91 0c84.28,0 140.38,-5.69 168.8,-16.8 28.43,-11.13 50.67,-28.43 66.74,-52.4 16.07,-23.73 24.22,-51.16 24.22,-82.8 0,-38.8 -11.37,-70.68 -33.86,-95.89 -22.73,-25.21 -51.16,-41.03 -86.01,-47.46 -25.46,-4.7 -76.62,-7.17 -153.73,-7.17l-103.06 0zm1012.84 882.35l0 -882.35 -314.38 0 0 -179.43 842.3 0 0 179.43 -312.9 0 0 882.35 -215.02 0zm499.75 0l0 -203.17 203.16 0 0 203.17 -203.16 0zm782.49 -524.47c0,-108.25 16.32,-199.2 48.7,-272.86 23.97,-54.13 57.09,-102.82 98.86,-145.82 41.77,-43.01 87.49,-74.9 137.17,-95.9 66.25,-27.93 142.61,-42.02 229.12,-42.02 156.69,0 281.76,48.7 375.92,145.82 93.92,97.37 140.88,232.58 140.88,405.82 0,171.78 -46.71,306.23 -139.88,403.12 -93.18,97.13 -217.99,145.57 -373.95,145.57 -157.93,0 -283.73,-48.19 -376.91,-144.83 -93.18,-96.4 -139.89,-229.36 -139.89,-398.91zm220.96 -7.16c0,120.37 27.93,211.57 83.54,273.85 55.61,62.04 126.29,93.18 211.81,93.18 85.76,0 155.96,-30.9 211.07,-92.44 54.87,-61.79 82.3,-154.22 82.3,-277.56 0,-121.84 -26.69,-212.8 -80.32,-272.61 -53.39,-60.06 -124.32,-89.97 -213.05,-89.97 -88.48,0 -159.91,30.4 -214.04,90.95 -54.12,60.8 -81.32,152.25 -81.32,274.59zm968.11 531.63l0 -1061.78 203.16 0 0 563.27 238.01 -271.13 250.62 0 -262.48 281.26 281.76 488.38 -219.47 0 -194.27 -347.26 -94.17 100.83 0 246.42 -203.16 0zm983.43 -532.38l-183.88 -32.62c20.76,-75.14 56.6,-130.75 107.26,-166.84 50.67,-36.08 126.05,-54.12 225.9,-54.12 90.71,0 158.43,10.62 202.92,32.12 44.24,21.51 75.63,48.7 93.67,81.81 18.04,33.12 27.19,93.67 27.19,182.15l-2.96 237.27c0,67.48 3.21,117.4 9.64,149.53 6.43,32.13 18.54,66.48 36.33,103.07l-201.68 0c-5.2,-13.35 -11.87,-33.12 -19.53,-59.32 -3.21,-12.12 -5.68,-20.02 -7.16,-23.73 -34.6,34.11 -71.67,59.56 -111.22,76.62 -39.55,17.05 -81.56,25.7 -126.3,25.7 -78.84,0 -141.13,-21.5 -186.6,-64.51 -45.48,-42.76 -68.21,-97.13 -68.21,-162.87 0,-43.25 10.38,-82.06 31.14,-116.17 20.77,-33.86 49.68,-60.06 87.25,-78.1 37.32,-18.04 91.2,-33.86 161.64,-47.46 94.91,-17.8 160.9,-34.6 197.48,-49.93l0 -20.51c0,-39.54 -9.64,-67.71 -28.93,-84.77 -19.52,-16.81 -56.1,-25.21 -109.74,-25.21 -36.33,0 -64.51,7.16 -84.77,21.74 -20.52,14.34 -36.83,39.79 -49.44,76.13zm272.87 164.61c-25.96,8.65 -67.23,19.03 -123.83,31.14 -56.36,12.12 -93.43,23.98 -110.73,35.35 -26.44,19.03 -39.79,42.76 -39.79,71.67 0,28.67 10.62,53.14 31.88,73.9 21.26,20.77 48.2,31.14 81.06,31.14 36.59,0 71.68,-12.11 105.04,-36.09 24.47,-18.53 40.78,-40.77 48.44,-67.47 5.19,-17.3 7.91,-50.42 7.91,-99.11l0 -40.53zm385.81 -401.88l186.85 0 0 105.04c66.97,-80.82 146.8,-121.35 239.49,-121.35 49.18,0 91.95,10.13 128.03,30.39 36.33,20.27 65.99,50.91 88.98,91.95 33.86,-41.03 70.44,-71.68 109.49,-91.95 39.05,-20.26 80.82,-30.39 125.3,-30.39 56.36,0 104.06,11.37 143.35,34.35 39.05,22.99 68.21,56.6 87.49,101.09 14.09,32.63 21.01,85.76 21.01,159.17l0 491.35 -203.17 0 0 -439.2c0,-76.37 -6.92,-125.56 -21,-147.55 -18.78,-28.92 -47.95,-43.5 -87,-43.5 -28.42,0 -55.36,8.65 -80.57,25.95 -24.97,17.55 -43.25,43.01 -54.38,76.37 -11.11,33.62 -16.56,86.51 -16.56,158.92l0 369.01 -203.16 0 0 -421.16c0,-74.64 -3.7,-123.08 -10.88,-144.58 -7.16,-21.75 -18.29,-38.06 -33.61,-48.7 -15.08,-10.62 -35.84,-15.81 -61.79,-15.81 -31.39,0 -59.56,8.4 -84.53,25.21 -25.2,17.05 -43,41.27 -53.88,73.16 -10.88,31.88 -16.31,84.77 -16.31,158.42l0 373.46 -203.16 0 0 -769.64zm1285.95 375.43c0,-67.72 16.56,-133.22 49.93,-196.49 33.36,-63.51 80.57,-111.71 141.62,-145.07 61.05,-33.37 129.01,-50.17 204.39,-50.17 116.41,0 211.57,37.81 285.96,113.44 74.39,75.88 111.47,171.28 111.47,286.95 0,116.65 -37.57,213.29 -112.45,289.91 -75.14,76.62 -169.55,114.93 -283.49,114.93 -70.44,0 -137.67,-16.07 -201.68,-47.94 -63.76,-31.89 -112.45,-78.6 -145.82,-140.38 -33.36,-61.55 -49.93,-136.68 -49.93,-225.16zm209.09 10.87c0,76.37 18.05,134.95 54.13,175.48 36.33,40.78 80.82,61.05 133.96,61.05 52.89,0 97.37,-20.27 133.21,-61.05 35.84,-40.54 53.88,-99.6 53.88,-176.96 0,-75.38 -18.04,-133.46 -53.88,-174 -35.84,-40.78 -80.32,-61.05 -133.21,-61.05 -53.14,0 -97.63,20.27 -133.96,61.05 -36.08,40.54 -54.13,99.11 -54.13,175.48zm1095.64 -386.3l0 161.64 -139.4 0 0 311.66c0,63.27 1.23,100.1 3.95,110.48 2.72,10.38 8.65,19.03 18.29,25.95 9.39,6.67 20.76,10.13 34.35,10.13 19.04,0 46.22,-6.42 82.06,-19.53l17.05 158.18c-47.21,20.27 -100.6,30.4 -160.41,30.4 -36.58,0 -69.45,-6.18 -98.86,-18.54 -29.41,-12.35 -50.91,-28.42 -64.51,-47.94 -13.84,-19.77 -23.23,-46.21 -28.67,-79.83 -4.2,-23.73 -6.43,-71.67 -6.43,-144.09l0 -336.88 -93.42 0 0 -161.64 93.42 0 0 -152.74 203.17 -120.11 0 272.86 139.4 0zm94.9 375.43c0,-67.72 16.56,-133.22 49.93,-196.49 33.36,-63.51 80.57,-111.71 141.62,-145.07 61.05,-33.37 129.02,-50.17 204.39,-50.17 116.41,0 211.57,37.81 285.96,113.44 74.39,75.88 111.47,171.28 111.47,286.95 0,116.65 -37.57,213.29 -112.45,289.91 -75.14,76.62 -169.55,114.93 -283.49,114.93 -70.44,0 -137.67,-16.07 -201.68,-47.94 -63.77,-31.89 -112.46,-78.6 -145.82,-140.38 -33.36,-61.55 -49.93,-136.68 -49.93,-225.16zm209.09 10.87c0,76.37 18.05,134.95 54.13,175.48 36.33,40.78 80.82,61.05 133.96,61.05 52.89,0 97.37,-20.27 133.22,-61.05 35.84,-40.54 53.88,-99.6 53.88,-176.96 0,-75.38 -18.04,-133.46 -53.88,-174 -35.84,-40.78 -80.33,-61.05 -133.22,-61.05 -53.14,0 -97.63,20.27 -133.96,61.05 -36.08,40.54 -54.13,99.11 -54.13,175.48zm1163.61 383.35l0 -1052.89 215.02 0 0 873.45 532.38 0 0 179.44 -747.4 0zm850.96 -394.21c0,-67.72 16.56,-133.22 49.92,-196.49 33.36,-63.51 80.57,-111.71 141.62,-145.07 61.05,-33.37 129.02,-50.17 204.39,-50.17 116.41,0 211.57,37.81 285.96,113.44 74.39,75.88 111.47,171.28 111.47,286.95 0,116.65 -37.57,213.29 -112.45,289.91 -75.14,76.62 -169.55,114.93 -283.49,114.93 -70.44,0 -137.67,-16.07 -201.68,-47.94 -63.77,-31.89 -112.46,-78.6 -145.82,-140.38 -33.36,-61.55 -49.92,-136.68 -49.92,-225.16zm209.09 10.87c0,76.37 18.04,134.95 54.12,175.48 36.33,40.78 80.82,61.05 133.96,61.05 52.89,0 97.37,-20.27 133.22,-61.05 35.84,-40.54 53.88,-99.6 53.88,-176.96 0,-75.38 -18.04,-133.46 -53.88,-174 -35.84,-40.78 -80.33,-61.05 -133.22,-61.05 -53.14,0 -97.63,20.27 -133.96,61.05 -36.08,40.54 -54.12,99.11 -54.12,175.48zm724.91 432.28l232.82 28.17c3.95,27.44 12.85,46.22 26.69,56.6 19.53,14.58 49.93,22 91.45,22 53.13,0 92.93,-7.91 119.63,-23.97 17.8,-10.63 31.39,-27.68 40.53,-51.41 6.18,-16.81 9.39,-48.2 9.39,-93.43l0.99 -112.45c-61.29,83.78 -138.4,125.56 -231.34,125.56 -103.31,0 -185.37,-43.75 -245.67,-131 -47.46,-68.96 -71.18,-154.96 -71.18,-257.54 0,-129.02 31.14,-227.38 93.18,-295.35 62.04,-67.97 139.4,-102.07 231.83,-102.07 95.15,0 173.75,41.77 235.54,125.3l0 -108.99 189.81 0 0 690.06c0,90.71 -7.41,158.68 -22.49,203.41 -14.83,44.98 -35.84,80.08 -63.02,105.79 -26.94,25.46 -63.02,45.73 -108.26,60.05 -45.23,14.59 -102.32,21.75 -171.27,21.75 -130.5,0 -222.94,-22.49 -277.56,-67.23 -54.62,-44.98 -81.81,-101.58 -81.81,-170.54 0,-6.67 0.24,-15.07 0.74,-24.71zm182.4 -449.33c0,81.56 15.82,141.13 47.21,178.94 31.63,37.81 70.68,56.85 116.91,56.85 49.43,0 91.44,-19.53 125.55,-58.33 34.36,-38.8 51.41,-96.14 51.41,-172.26 0,-79.59 -16.31,-138.66 -49.18,-177.21 -32.62,-38.56 -74.14,-57.83 -124.32,-57.83 -48.7,0 -88.73,19.03 -120.37,56.85 -31.39,37.81 -47.21,95.4 -47.21,173zm742.7 400.4l0 -769.64 203.17 0 0 769.64 -203.17 0zm339.35 -216.51l204.65 -31.14c8.65,39.3 26.2,69.21 52.89,89.47 26.44,20.52 63.77,30.65 111.47,30.65 52.64,0 92.19,-9.64 118.88,-28.92 17.8,-13.59 26.7,-31.88 26.7,-54.62 0,-15.32 -4.94,-28.17 -14.59,-38.31 -10.13,-9.64 -32.87,-18.78 -67.97,-26.94 -164.35,-36.33 -268.4,-69.44 -312.4,-99.36 -61.05,-41.77 -91.45,-99.6 -91.45,-173.5 0,-66.98 26.44,-123.08 79.09,-168.56 52.64,-45.48 134.21,-68.21 244.68,-68.21 105.29,0 183.64,17.3 234.79,51.65 51.17,34.6 86.51,85.52 105.79,152.99l-191.3 35.59c-8.16,-30.15 -23.97,-53.39 -46.96,-69.45 -22.99,-16.06 -55.86,-23.97 -98.62,-23.97 -53.88,0 -92.43,7.42 -115.91,22.5 -15.57,10.62 -23.23,24.47 -23.23,41.28 0,14.58 6.67,26.93 20.27,37.07 18.53,13.59 82.05,32.63 190.8,57.34 108.75,24.71 184.62,54.86 227.63,90.7 42.76,36.09 64.01,86.75 64.01,151.51 0,70.44 -29.41,131.24 -88.48,181.91 -58.82,50.66 -146.07,76.12 -261.74,76.12 -104.79,0 -187.84,-21.26 -249.13,-63.51 -61.05,-42.27 -101.09,-99.61 -119.87,-172.27zm1248.88 -553.13l0 161.64 -139.4 0 0 311.66c0,63.27 1.23,100.1 3.95,110.48 2.73,10.38 8.66,19.03 18.29,25.95 9.39,6.67 20.76,10.13 34.35,10.13 19.04,0 46.22,-6.42 82.06,-19.53l17.05 158.18c-47.21,20.27 -100.59,30.4 -160.41,30.4 -36.58,0 -69.44,-6.18 -98.86,-18.54 -29.41,-12.35 -50.91,-28.42 -64.51,-47.94 -13.84,-19.77 -23.23,-46.21 -28.67,-79.83 -4.2,-23.73 -6.42,-71.67 -6.42,-144.09l0 -336.88 -93.43 0 0 -161.64 93.43 0 0 -152.74 203.16 -120.11 0 272.86 139.4 0zm142.36 769.64l0 -769.64 203.16 0 0 769.64 -203.16 0zm1082.3 -541.27l-200.19 35.59c-6.67,-39.79 -22,-69.7 -45.97,-89.97 -23.98,-20.02 -54.87,-30.16 -92.94,-30.16 -50.67,0 -91.2,17.55 -121.35,52.64 -30.15,35.09 -45.23,93.67 -45.23,175.97 0,91.45 15.32,155.96 45.97,193.77 30.65,37.82 71.68,56.6 123.08,56.6 38.55,0 70.2,-11.12 94.66,-33.12 24.72,-22 42.02,-59.82 52.15,-113.69l200.2 34.11c-20.77,91.94 -60.56,161.39 -119.38,208.35 -58.82,46.97 -137.67,70.44 -236.78,70.44 -112.21,0 -201.92,-35.59 -268.66,-106.52 -66.98,-71.18 -100.34,-169.55 -100.34,-295.35 0,-127.28 33.61,-226.15 100.59,-297.08 66.98,-70.94 157.69,-106.28 272.12,-106.28 93.42,0 167.81,20.26 223.18,60.55 55.12,40.28 94.67,101.58 118.88,184.13zm81.81 324.76l204.65 -31.14c8.66,39.3 26.2,69.21 52.9,89.47 26.44,20.52 63.77,30.65 111.47,30.65 52.64,0 92.18,-9.64 118.88,-28.92 17.8,-13.59 26.69,-31.88 26.69,-54.62 0,-15.32 -4.94,-28.17 -14.58,-38.31 -10.13,-9.64 -32.87,-18.78 -67.97,-26.94 -164.35,-36.33 -268.41,-69.44 -312.41,-99.36 -61.04,-41.77 -91.44,-99.6 -91.44,-173.5 0,-66.98 26.44,-123.08 79.09,-168.56 52.64,-45.48 134.21,-68.21 244.68,-68.21 105.29,0 183.64,17.3 234.79,51.65 51.16,34.6 86.51,85.52 105.79,152.99l-191.31 35.59c-8.15,-30.15 -23.97,-53.39 -46.96,-69.45 -22.99,-16.06 -55.86,-23.97 -98.61,-23.97 -53.88,0 -92.44,7.42 -115.91,22.5 -15.58,10.62 -23.24,24.47 -23.24,41.28 0,14.58 6.67,26.93 20.27,37.07 18.54,13.59 82.06,32.63 190.81,57.34 108.75,24.71 184.62,54.86 227.63,90.7 42.76,36.09 64.01,86.75 64.01,151.51 0,70.44 -29.41,131.24 -88.48,181.91 -58.82,50.66 -146.07,76.12 -261.74,76.12 -104.79,0 -187.84,-21.26 -249.13,-63.51 -61.05,-42.27 -101.09,-99.61 -119.88,-172.27zm1310.92 216.51l0 -1061.78 208.1 0 436.98 711.56 0 -711.56 198.71 0 0 1061.78 -214.78 0 -430.3 -697.97 0 697.97 -198.71 0zm1578.09 0l0 -115.18c-28.17,41.03 -65.01,73.65 -110.73,98.12 -45.72,24.22 -93.91,36.33 -144.58,36.33 -51.9,0 -98.36,-11.37 -139.4,-34.11 -41.27,-22.74 -70.93,-54.86 -89.22,-95.9 -18.54,-41.27 -27.68,-98.12 -27.68,-170.78l0 -488.13 203.16 0 0 354.42c0,108.5 3.7,174.74 11.37,199.2 7.42,24.47 21.01,44 41.03,58.09 19.78,14.33 44.98,21.5 75.63,21.5 34.85,0 65.99,-9.64 93.68,-28.67 27.68,-19.03 46.46,-42.76 56.59,-71.17 10.13,-28.43 15.32,-97.63 15.32,-208.11l0 -325.26 203.16 0 0 769.64 -188.33 0zm324.52 -216.51l204.64 -31.14c8.66,39.3 26.2,69.21 52.9,89.47 26.44,20.52 63.77,30.65 111.47,30.65 52.64,0 92.18,-9.64 118.88,-28.92 17.8,-13.59 26.69,-31.88 26.69,-54.62 0,-15.32 -4.94,-28.17 -14.58,-38.31 -10.13,-9.64 -32.87,-18.78 -67.97,-26.94 -164.35,-36.33 -268.41,-69.44 -312.4,-99.36 -61.05,-41.77 -91.45,-99.6 -91.45,-173.5 0,-66.98 26.44,-123.08 79.09,-168.56 52.64,-45.48 134.21,-68.21 244.68,-68.21 105.29,0 183.64,17.3 234.79,51.65 51.16,34.6 86.51,85.52 105.79,152.99l-191.3 35.59c-8.16,-30.15 -23.98,-53.39 -46.97,-69.45 -22.99,-16.06 -55.85,-23.97 -98.61,-23.97 -53.88,0 -92.44,7.42 -115.91,22.5 -15.57,10.62 -23.24,24.47 -23.24,41.28 0,14.58 6.67,26.93 20.27,37.07 18.54,13.59 82.06,32.63 190.81,57.34 108.75,24.71 184.62,54.86 227.63,90.7 42.76,36.09 64.01,86.75 64.01,151.51 0,70.44 -29.41,131.24 -88.48,181.91 -58.82,50.66 -146.07,76.12 -261.74,76.12 -104.79,0 -187.84,-21.26 -249.13,-63.51 -61.05,-42.27 -101.09,-99.61 -119.87,-172.27zm1048.68 -315.87l-183.89 -32.62c20.77,-75.14 56.6,-130.75 107.27,-166.84 50.66,-36.08 126.05,-54.12 225.9,-54.12 90.7,0 158.42,10.62 202.91,32.12 44.25,21.51 75.64,48.7 93.68,81.81 18.04,33.12 27.19,93.67 27.19,182.15l-2.97 237.27c0,67.48 3.21,117.4 9.64,149.53 6.42,32.13 18.53,66.48 36.33,103.07l-201.68 0c-5.19,-13.35 -11.86,-33.12 -19.53,-59.32 -3.21,-12.12 -5.69,-20.02 -7.16,-23.73 -34.6,34.11 -71.68,59.56 -111.22,76.62 -39.55,17.05 -81.56,25.7 -126.3,25.7 -78.84,0 -141.13,-21.5 -186.61,-64.51 -45.47,-42.76 -68.21,-97.13 -68.21,-162.87 0,-43.25 10.38,-82.06 31.14,-116.17 20.76,-33.86 49.67,-60.06 87.24,-78.1 37.32,-18.04 91.21,-33.86 161.65,-47.46 94.9,-17.8 160.9,-34.6 197.47,-49.93l0 -20.51c0,-39.54 -9.64,-67.71 -28.92,-84.77 -19.53,-16.81 -56.1,-25.21 -109.74,-25.21 -36.33,0 -64.51,7.16 -84.78,21.74 -20.51,14.34 -36.82,39.79 -49.43,76.13zm272.86 164.61c-25.95,8.65 -67.23,19.03 -123.83,31.14 -56.35,12.12 -93.43,23.98 -110.72,35.35 -26.44,19.03 -39.79,42.76 -39.79,71.67 0,28.67 10.63,53.14 31.89,73.9 21.26,20.77 48.19,31.14 81.06,31.14 36.58,0 71.68,-12.11 105.04,-36.09 24.46,-18.53 40.78,-40.77 48.44,-67.47 5.19,-17.3 7.91,-50.42 7.91,-99.11l0 -40.53zm1100.58 367.77l-203.16 0 0 -392.24c0,-83.05 -4.45,-136.68 -13.1,-160.9 -8.89,-24.47 -22.99,-43.25 -42.76,-56.85 -19.78,-13.59 -43.5,-20.27 -71.18,-20.27 -35.59,0 -67.47,9.64 -95.65,28.92 -28.42,19.28 -47.7,44.98 -58.08,76.62 -10.63,31.89 -15.82,90.71 -15.82,176.72l0 348 -203.16 0 0 -769.64 188.34 0 0 112.95c67.47,-86.26 152.25,-129.26 254.82,-129.26 44.98,0 86.25,8.15 123.57,24.22 37.57,16.31 65.75,36.83 84.78,61.79 19.28,25.2 32.62,53.63 40.04,85.51 7.66,31.89 11.37,77.37 11.37,136.68l0 477.76zm557.34 -769.64l0 161.64 -139.4 0 0 311.66c0,63.27 1.24,100.1 3.96,110.48 2.72,10.38 8.65,19.03 18.29,25.95 9.39,6.67 20.76,10.13 34.35,10.13 19.03,0 46.21,-6.42 82.06,-19.53l17.05 158.18c-47.21,20.27 -100.6,30.4 -160.41,30.4 -36.58,0 -69.45,-6.18 -98.86,-18.54 -29.41,-12.35 -50.91,-28.42 -64.51,-47.94 -13.85,-19.77 -23.24,-46.21 -28.67,-79.83 -4.2,-23.73 -6.43,-71.67 -6.43,-144.09l0 -336.88 -93.43 0 0 -161.64 93.43 0 0 -152.74 203.16 -120.11 0 272.86 139.4 0zm293.62 237.27l-183.89 -32.62c20.77,-75.14 56.6,-130.75 107.27,-166.84 50.66,-36.08 126.05,-54.12 225.9,-54.12 90.7,0 158.42,10.62 202.91,32.12 44.24,21.51 75.64,48.7 93.68,81.81 18.04,33.12 27.19,93.67 27.19,182.15l-2.97 237.27c0,67.48 3.21,117.4 9.64,149.53 6.42,32.13 18.53,66.48 36.33,103.07l-201.68 0c-5.19,-13.35 -11.86,-33.12 -19.53,-59.32 -3.21,-12.12 -5.69,-20.02 -7.16,-23.73 -34.6,34.11 -71.68,59.56 -111.22,76.62 -39.55,17.05 -81.56,25.7 -126.3,25.7 -78.84,0 -141.13,-21.5 -186.61,-64.51 -45.47,-42.76 -68.21,-97.13 -68.21,-162.87 0,-43.25 10.38,-82.06 31.14,-116.17 20.76,-33.86 49.67,-60.06 87.24,-78.1 37.32,-18.04 91.21,-33.86 161.65,-47.46 94.9,-17.8 160.9,-34.6 197.47,-49.93l0 -20.51c0,-39.54 -9.64,-67.71 -28.92,-84.77 -19.53,-16.81 -56.1,-25.21 -109.74,-25.21 -36.33,0 -64.51,7.16 -84.78,21.74 -20.51,14.34 -36.82,39.79 -49.43,76.13zm272.86 164.61c-25.95,8.65 -67.23,19.03 -123.83,31.14 -56.35,12.12 -93.43,23.98 -110.72,35.35 -26.44,19.03 -39.79,42.76 -39.79,71.67 0,28.67 10.63,53.14 31.89,73.9 21.26,20.77 48.19,31.14 81.06,31.14 36.58,0 71.68,-12.11 105.04,-36.09 24.46,-18.53 40.78,-40.77 48.44,-67.47 5.19,-17.3 7.91,-50.42 7.91,-99.11l0 -40.53zm594.9 367.77l-203.16 0 0 -769.64 188.34 0 0 109.24c32.38,-51.65 61.54,-85.51 87.49,-101.58 25.95,-16.07 55.36,-23.97 88.24,-23.97 46.46,0 91.2,12.85 134.21,38.31l-63.03 177.46c-34.35,-22.25 -66.23,-33.37 -95.64,-33.37 -28.67,0 -52.89,7.91 -72.67,23.48 -19.77,15.81 -35.34,44 -46.71,85.02 -11.37,41.03 -17.05,127.03 -17.05,257.78l0 237.28zm534.11 -532.38l-183.89 -32.62c20.77,-75.14 56.6,-130.75 107.27,-166.84 50.66,-36.08 126.05,-54.12 225.9,-54.12 90.7,0 158.42,10.62 202.91,32.12 44.24,21.51 75.63,48.7 93.68,81.81 18.04,33.12 27.19,93.67 27.19,182.15l-2.97 237.27c0,67.48 3.21,117.4 9.64,149.53 6.42,32.13 18.53,66.48 36.33,103.07l-201.68 0c-5.19,-13.35 -11.86,-33.12 -19.53,-59.32 -3.21,-12.12 -5.69,-20.02 -7.16,-23.73 -34.6,34.11 -71.68,59.56 -111.22,76.62 -39.55,17.05 -81.56,25.7 -126.3,25.7 -78.84,0 -141.13,-21.5 -186.61,-64.51 -45.47,-42.76 -68.21,-97.13 -68.21,-162.87 0,-43.25 10.38,-82.06 31.14,-116.17 20.76,-33.86 49.67,-60.06 87.24,-78.1 37.32,-18.04 91.21,-33.86 161.65,-47.46 94.9,-17.8 160.9,-34.6 197.47,-49.93l0 -20.51c0,-39.54 -9.64,-67.71 -28.92,-84.77 -19.53,-16.81 -56.1,-25.21 -109.74,-25.21 -36.33,0 -64.51,7.16 -84.78,21.74 -20.51,14.34 -36.82,39.79 -49.43,76.13zm272.86 164.61c-25.96,8.65 -67.23,19.03 -123.83,31.14 -56.35,12.12 -93.43,23.98 -110.72,35.35 -26.44,19.03 -39.79,42.76 -39.79,71.67 0,28.67 10.63,53.14 31.89,73.9 21.26,20.77 48.19,31.14 81.06,31.14 36.58,0 71.67,-12.11 105.04,-36.09 24.46,-18.53 40.78,-40.77 48.44,-67.47 5.19,-17.3 7.91,-50.42 7.91,-99.11l0 -40.53z"/>
    <polygon class="fil1" points="13782.4,492.63 14113.26,492.63 14113.26,164.79 "/>
    <polygon class="fil1" points="15498.71,492.63 15829.57,492.63 15829.57,164.79 "/>
   </g>
  </g>
 </g>
</svg>